{"title":"DCI Banks S01","uid":9936472,"size":654203407,"categoryP":"video","categoryS":"tv_shows","magnet":"?xt=urn:btih:401ef3336c6434b3d2d8b6d31b16f63ed10049b6&amp;dn=DCI+Banks+S01&amp;tr=udp%3A%2F%2Ftracker.openbittorrent.com%3A80&amp;tr=udp%3A%2F%2Fopen.demonii.com%3A1337&amp;tr=udp%3A%2F%2Ftracker.coppersurfer.tk%3A6969&amp;tr=udp%3A%2F%2Fexodus.desync.com%3A6969","seeders":16,"leechers":0,"uploader":"RedBaron58","files":2,"time":1397167399,"description":"DCI Banks Series 1 (Pilot) 2010 DVDRip x264 mp4 \n &lt;a href=&quot;\nhttp://www.imdb.com/title/tt1652216/&quot; rel=&quot;nofollow&quot; target=&quot;_NEW&quot;&gt;\nhttp://www.imdb.com/title/tt1652216/&lt;/a&gt;\n\n\nPlease be patient My upload speed is limited, but I am online most the time and during the night.\nThank you for your kind comments and thumbs ups on my other torrents, your feedback is welcome.\n\n\nAbout the Series:\nAn officer is killed while responding to a domestic disturbance call. His partner subdues the \nkiller, Marcus Payne, but Payne ends up in a coma. When DCI Banks investigates the grisly scene, \nhe discovers it's the home of a serial rapist and murderer. \nThe victims of four open cases are buried in the cellar. The fifth is missing and may still be \nalive, and Banks is haunted by the desire to find her.\n\n\nI hope you enjoy.\n\n\nTechnical: (Both episodes encoded the same)\n\nGeneral\nComplete name                            : G:DCI Banks S01DCI Banks S01E01 Aftermath pt 1 x264 RB58.mp4\nFormat                                   : MPEG-4\nFormat profile                           : Base Media / Version 2\nCodec ID                                 : mp42\nFile size                                : 313 MiB\nDuration                                 : 45mn 23s\nOverall bit rate mode                    : Variable\nOverall bit rate                         : 964 Kbps\nEncoded date                             : UTC 2014-04-10 17:18:58\nTagged date                              : UTC 2014-04-10 17:30:48\nWriting application                      : HandBrake 0.9.8 2012071700\n\nVideo\nID                                       : 1\nFormat                                   : AVC\nFormat/Info                              : Advanced Video Codec\nFormat profile                           : &lt;a class=&quot;__cf_email__&quot; href=&quot;/cdn-cgi/l/email-protection&quot; data-cfemail=&quot;d499b5bdba9498e7fae4&quot;&gt;[email&amp;#160;protected]&lt;/a&gt;&lt;script cf-hash='f9e31' type=&quot;text/javascript&quot;&gt;\n/* &lt;![CDATA[ */!function(){try{var t=&quot;currentScript&quot;in document?document.currentScript:function(){for(var t=document.getElementsByTagName(&quot;script&quot;),e=t.length;e--;)if(t[e].getAttribute(&quot;cf-hash&quot;))return t[e]}();if(t&amp;&amp;t.previousSibling){var e,r,n,i,c=t.previousSibling,a=c.getAttribute(&quot;data-cfemail&quot;);if(a){for(e=&quot;&quot;,r=parseInt(a.substr(0,2),16),n=2;a.length-n;n+=2)i=parseInt(a.substr(n,2),16)^r,e+=String.fromCharCode(i);e=document.createTextNode(e),c.parentNode.replaceChild(e,c)}}}catch(u){}}();/* ]]&gt; */&lt;/script&gt;\nFormat settings, CABAC                   : Yes\nFormat settings, ReFrames                : 4 frames\nCodec ID                                 : avc1\nCodec ID/Info                            : Advanced Video Coding\nDuration                                 : 45mn 23s\nBit rate mode                            : Variable\nBit rate                                 : 800 Kbps\nWidth                                    : 720 pixels\nHeight                                   : 576 pixels\nDisplay aspect ratio                     : 16:9\nFrame rate mode                          : Variable\nFrame rate                               : 25.000 fps\nMinimum frame rate                       : 15.658 fps\nMaximum frame rate                       : 25.000 fps\nStandard                                 : PAL\nColor space                              : YUV\nChroma subsampling                       : 4:2:0\nBit depth                                : 8 bits\nScan type                                : Progressive\nBits/(Pixel*Frame)                       : 0.077\nStream size                              : 260 MiB (83%)\nWriting library                          : x264 core 120\nEncoding settings                        : cabac=1 / ref=1 / deblock=1:0:0\nEncoded date                             : UTC 2014-04-10 17:18:58\nTagged date                              : UTC 2014-04-10 17:30:48\nColor primaries                          : BT.601 NTSC\nTransfer characteristics                 : BT.709\nMatrix coefficients                      : BT.601\n\nAudio\nID                                       : 2\nFormat                                   : AAC\nFormat/Info                              : Advanced Audio Codec\nFormat profile                           : LC\nCodec ID                                 : 40\nDuration                                 : 45mn 23s\nBit rate mode                            : Variable\nBit rate                                 : 160 Kbps\nMaximum bit rate                         : 294 Kbps\nChannel(s)                               : 2 channels\nChannel positions                        : Front: L R\nSampling rate                            : 48.0 KHz\nCompression mode                         : Lossy\nDelay relative to video                  : 80ms\nStream size                              : 51.8 MiB (17%)\nLanguage                                 : English\nEncoded date                             : UTC 2014-04-10 17:18:58\nTagged date                              : UTC 2014-04-10 17:30:47","torrent":{"xt":"urn:btih:401ef3336c6434b3d2d8b6d31b16f63ed10049b6","amp;dn":"DCI+Banks+S01","amp;tr":["udp%3A%2F%2Ftracker.openbittorrent.com%3A80","udp%3A%2F%2Fopen.demonii.com%3A1337","udp%3A%2F%2Ftracker.coppersurfer.tk%3A6969","udp%3A%2F%2Fexodus.desync.com%3A6969"],"infoHash":"401ef3336c6434b3d2d8b6d31b16f63ed10049b6","infoHashBuffer":{"type":"Buffer","data":[64,30,243,51,108,100,52,179,210,216,182,211,27,22,246,62,209,0,73,182]},"announce":[],"urlList":[]}}